<svg xmlns="http://www.w3.org/2000/svg" baseProfile="full" width="400" height="260" style="zoom:1"><defs><mask id="a"><path stroke-width="0" fill="#fff" d="M142 72h116v116H142z"/><path stroke="#000" stroke-width="0" d="m168 140 14.85 14.85a8 8 0 0 0 11.314 0l38.89-38.89a8 8 0 0 0-11.314-11.314l-33.234 33.234-9.19-9.19A8 8 0 0 0 168 140"/></mask></defs><g fill="#fff"><circle cx="64" cy="130" r="58"/><circle cy="130" mask="url(#a)" r="58" cx="200"/><circle cx="336" cy="130" r="58"/><path d="M122 93V15a15 15 0 0 0-30 0v52a70 70 0 0 1 30 26M394 167a70 70 0 0 1-30 26v52a15 15 0 0 0 30 0v-78"/></g></svg>