<!-- This Source Code Form is subject to the terms of the Mozilla Public
   - License, v. 2.0. If a copy of the MPL was not distributed with this
   - file, You can obtain one at http://mozilla.org/MPL/2.0/. -->
<svg xmlns="http://www.w3.org/2000/svg" width="16" height="16" viewBox="0 0 16 16" fill="context-fill hsla(0,0%,4%,1)"><path d="M13 1a3 3 0 0 1 3 3v8a3 3 0 0 1-3 3H3a3 3 0 0 1-3-3V4a3 3 0 0 1 3-3h10zm0 2H3a1 1 0 0 0-1 1v1h12V4a1 1 0 0 0-1-1zm1 3H2v6a1 1 0 0 0 1 1h10a1 1 0 0 0 1-1z"></path><path d="M4.09 7.859l2.062 2-.006-.713-2.061 2.062a.5.5 0 0 0 .707.707l2.062-2.061a.5.5 0 0 0-.006-.713l-2.061-2a.5.5 0 1 0-.697.718z"/></svg>
